# xmcd CD database file
#
# Track frame offsets:
#	150
#	27557
#	50640
#	64500
#	80392
#	105950
#	122962
#	135785
#	146640
#
# Disc length: 2139 seconds
#
# Revision: 0
# Processed by: cddbd v1.5PL3 Copyright (c) Steve Scherf et al.
# Submitted via: CDex 1.50
#
DISCID=74085909
DTITLE=Karin Krog - We Could be Flying
DYEAR=1900
DGENRE=Jazz
TTITLE0=We Could be Flying
TTITLE1=Meaning of Love
TTITLE2=Sometime Ago
TTITLE3=All I Want
TTITLE4=Sing Me Softly of the Blues
TTITLE5=Raindrops, Raindrops
TTITLE6=Lament
TTITLE7=Hold Out Your Hand
TTITLE8=Time to Go
EXTD=
EXTT0=
EXTT1=
EXTT2=
EXTT3=
EXTT4=
EXTT5=
EXTT6=
EXTT7=
EXTT8=
PLAYORDER=
